<?xml version="1.0" encoding="UTF-8" standalone="no"?>
<!-- Created with Inkscape (http://www.inkscape.org/) -->

<svg
   width="210mm"
   height="210mm"
   viewBox="0 0 210 210"
   version="1.1"
   id="svg5"
   inkscape:version="1.2.2 (b0a8486541, 2022-12-01)"
   sodipodi:docname="burrito_truck.svg"
   inkscape:export-filename="burrito_truck.png"
   inkscape:export-xdpi="12.477833"
   inkscape:export-ydpi="12.477833"
   xmlns:inkscape="http://www.inkscape.org/namespaces/inkscape"
   xmlns:sodipodi="http://sodipodi.sourceforge.net/DTD/sodipodi-0.dtd"
   xmlns="http://www.w3.org/2000/svg"
   xmlns:svg="http://www.w3.org/2000/svg">
  <sodipodi:namedview
     id="namedview7"
     pagecolor="#ffffff"
     bordercolor="#000000"
     borderopacity="0.25"
     inkscape:showpageshadow="2"
     inkscape:pageopacity="0.0"
     inkscape:pagecheckerboard="0"
     inkscape:deskcolor="#d1d1d1"
     inkscape:document-units="mm"
     showgrid="false"
     inkscape:zoom="1.0142361"
     inkscape:cx="396.35742"
     inkscape:cy="396.8504"
     inkscape:window-width="1854"
     inkscape:window-height="1011"
     inkscape:window-x="1200"
     inkscape:window-y="32"
     inkscape:window-maximized="1"
     inkscape:current-layer="layer1" />
  <defs
     id="defs2" />
  <g
     inkscape:label="Calque 1"
     inkscape:groupmode="layer"
     id="layer1">
    <g
       id="g2407"
       transform="matrix(1.3149843,-0.14770989,0.14648279,1.3260001,-24.539436,-2.1605305)"
       style="fill:#ff00ff;stroke:none">
      <circle
         style="fill:#ff00ff;stroke-width:1;stroke:none"
         id="path761"
         cx="102.98174"
         cy="90.583649"
         r="7.7636199" />
      <circle
         style="fill:#ff00ff;stroke-width:1;stroke:none"
         id="path761-3"
         cx="74.573448"
         cy="90.583649"
         r="7.7636199" />
    </g>
    <path
       d="m 182.65858,159.68212 q 0.44237,4.00448 1.90963,6.58219 1.58406,2.5646 3.98542,3.96423 2.51816,1.38651 5.86665,1.72581 3.46528,0.3262 7.55329,-0.133 0.93441,-0.10496 1.0385,0.83727 l 0.50743,4.59338 q 0.039,0.35333 -0.0387,0.7198 -0.0908,0.24867 -0.79159,0.32739 l -69.02908,7.75391 q -0.584,0.0656 -0.85663,-0.26149 -0.15584,-0.34022 -0.18187,-0.57577 l -0.50742,-4.59338 q -0.026,-0.23556 0.0517,-0.60202 0.19457,-0.37957 0.77857,-0.44517 4.08801,-0.4592 7.30638,-1.29768 3.32216,-0.96937 5.463,-2.99845 2.25765,-2.04222 3.17815,-5.48434 0.92049,-3.44213 0.29597,-9.09552 L 135.04503,32.673573 60.759923,41.01789 75.202134,171.75251 q 0.442373,4.00449 1.909631,6.5822 1.584058,2.5646 3.985422,3.96422 2.518164,1.38651 5.866643,1.72582 3.465281,0.3262 7.553297,-0.133 0.934404,-0.10496 1.038492,0.83727 l 0.507428,4.59337 q 0.03903,0.35334 -0.03873,0.7198 -0.09078,0.24867 -0.791582,0.32739 l -69.029086,7.75392 q -0.584003,0.0656 -0.856637,-0.2615 -0.155833,-0.34021 -0.181855,-0.57577 l -0.507429,-4.59338 q -0.02602,-0.23556 0.05175,-0.60201 0.194568,-0.37957 0.77857,-0.44517 4.088017,-0.4592 7.306386,-1.29768 3.32216,-0.96938 5.463005,-2.99846 2.140843,-2.02909 3.061342,-5.47121 0.920496,-3.44214 0.295968,-9.09553 L 28.122334,50.646035 q -0.442374,-4.004483 -2.026431,-6.569079 -1.467259,-2.577715 -3.985422,-3.96422 -2.401363,-1.399626 -5.866643,-1.72582 -3.34848,-0.339313 -7.4364966,0.119887 -0.934404,0.10496 -1.0384921,-0.837272 L 7.2614203,33.076152 Q 7.1573324,32.133921 8.0917363,32.028961 L 184.57726,12.204649 q 0.58401,-0.0656 0.73985,0.274616 0.27263,0.327097 0.29865,0.562654 l 0.50743,4.593379 q 0.026,0.235558 -0.16855,0.615135 -0.0778,0.366458 -0.66177,0.432058 -4.08801,0.459199 -7.41017,1.428573 -3.21837,0.838476 -5.35921,2.867559 -2.14086,2.029086 -3.06135,5.471215 -0.9205,3.44213 -0.29597,9.09552 z"
       style="font-weight:bold;font-size:241.693px;font-family:Cardo;-inkscape-font-specification:'Cardo Bold';text-align:center;text-anchor:middle;fill:#3771c8;stroke-width:9.51549"
       id="path339" />
    <path
       style="fill:none;stroke:#ff00ff;stroke-width:9.56768;stroke-linecap:round;stroke-dasharray:none"
       id="path790"
       sodipodi:type="arc"
       sodipodi:cx="93.273933"
       sodipodi:cy="-140.80174"
       sodipodi:rx="26.166334"
       sodipodi:ry="13.951173"
       sodipodi:start="3.5011305"
       sodipodi:end="5.9341195"
       sodipodi:arc-type="arc"
       d="m 68.780687,-145.71035 a 26.166334,13.951173 0 0 1 24.630253,-9.04237 26.166334,13.951173 0 0 1 24.4513,9.1794"
       sodipodi:open="true"
       transform="matrix(0.99375026,-0.11162623,-0.10980171,-0.99395351,0,0)" />
    <g
       id="g2412"
       transform="matrix(1.3149843,-0.14770989,0.14648279,1.3260001,-23.644695,1.290875)"
       style="fill:#ff00ff;stroke:#ff00ff">
      <path
         style="fill:#ff00ff;stroke:#ff00ff;stroke-width:9.40001;stroke-linecap:round;stroke-dasharray:none"
         d="M 103.5614,53.309907 V 71.031164"
         id="path1504-7"
         sodipodi:nodetypes="cc" />
      <path
         style="fill:#ff00ff;stroke:#ff00ff;stroke-width:9.40001;stroke-linecap:round;stroke-dasharray:none"
         d="M 88.391908,45.901569 V 63.622826"
         id="path1504-6"
         sodipodi:nodetypes="cc" />
      <path
         style="fill:#ff00ff;stroke:#ff00ff;stroke-width:9.40001;stroke-linecap:round;stroke-dasharray:none"
         d="M 73.222417,53.309907 V 71.031164"
         id="path1504"
         sodipodi:nodetypes="cc" />
    </g>
    <circle
       style="fill:#ff00ff;stroke:#000055;stroke-width:9.40001;stroke-linecap:round"
       id="path422"
       cx="167.52864"
       cy="171.5965"
       r="33.438217" />
    <circle
       style="fill:#ff00ff;stroke:#000055;stroke-width:9.40001;stroke-linecap:round"
       id="path510"
       cx="60.551964"
       cy="192.13661"
       r="13.748116" />
    <circle
       style="fill:#8080ff;stroke:none;stroke-width:9.40001;stroke-linecap:round"
       id="path683"
       cx="188.04601"
       cy="129.0345"
       r="4.3937035" />
    <circle
       style="fill:#8080ff;stroke:none;stroke-width:9.40001;stroke-linecap:round"
       id="path687"
       cx="197.95535"
       cy="119.93711"
       r="5.7232718" />
    <circle
       style="fill:#8080ff;stroke:none;stroke-width:12.7015;stroke-linecap:round"
       id="path687-3"
       cx="201.18661"
       cy="103.04308"
       r="7.7334118" />
    <circle
       style="fill:#8080ff;stroke:none;stroke-width:15.4668;stroke-linecap:round"
       id="path687-6"
       cx="201.39491"
       cy="81.189247"
       r="9.4170666" />
  </g>
</svg>
